<svg xmlns="http://www.w3.org/2000/svg" viewBox="0 0 22 22">
  <!-- macOS template image for recording state -->
  <path d="M 3.5 3.5 C 3.5 2.1, 4.6 1, 6 1 L 16 1 C 17.4 1, 18.5 2.1, 18.5 3.5
           L 18.5 13.5 C 18.5 14.9, 17.4 16, 16 16 L 9 16 L 5.5 19.5 L 5.5 16
           L 6 16 C 4.6 16, 3.5 14.9, 3.5 13.5 Z"
        fill="#000000"/>
  <!-- Text lines (transcript) -->
  <g fill="#ffffff">
    <rect x="6" y="4.2" width="10" height="1.4" rx="0.7"/>
    <rect x="6" y="7" width="8.5" height="1.4" rx="0.7"/>
    <rect x="6" y="9.8" width="10.5" height="1.4" rx="0.7"/>
    <rect x="6" y="12.6" width="7" height="1.4" rx="0.7"/>
  </g>
  <!-- Recording dot -->
  <circle cx="17.5" cy="3" r="2.5" fill="#000000"/>
</svg>
